<svg version="1.1" xmlns="http://www.w3.org/2000/svg" style="display: block;" viewBox="0 0 2048 2048" width="1024" height="1024" preserveAspectRatio="none">
<path transform="translate(0,0)" fill="rgb(47,65,89)" d="M 997.599 133.078 C 1489.4 118.604 1899.85 505.478 1914.47 997.275 C 1929.09 1489.07 1542.33 1899.64 1050.54 1914.4 C 558.545 1929.16 147.774 1542.21 133.152 1050.22 C 118.53 558.217 505.596 147.558 997.599 133.078 z M 1058.53 1896.15 C 1540.55 1876.96 1915.66 1470.49 1896.18 988.483 C 1876.7 506.473 1470.02 131.605 988.017 151.37 C 506.421 171.119 131.934 577.392 151.398 1059 C 170.863 1540.61 576.914 1915.33 1058.53 1896.15 z"/>
<path transform="translate(0,0)" fill="rgb(87,140,180)" d="M 937.739 1056.94 C 974.755 1048.57 942.406 987.02 962.227 966.075 C 971.952 955.8 1008.1 958.801 1022.18 958.903 C 1035.56 958.941 1075.22 956.889 1082.1 965.586 C 1099.7 987.829 1073.87 1035.69 1103 1056.26 C 1118.77 1057.25 1135.06 1057.02 1150.9 1057.02 C 1181.51 1057.49 1212.12 1057.63 1242.73 1057.43 C 1253.18 1057.41 1280.13 1056.74 1288.97 1058.05 C 1293.97 1060.24 1301.19 1064.58 1301.95 1069.91 C 1305.27 1093.49 1303.73 1128.43 1303.79 1151.8 L 1303.99 1305.26 L 1304.02 1404.41 C 1304.02 1423.22 1304.43 1442.25 1303.51 1461.01 C 1301.33 1505.86 1272.61 1540.65 1243.06 1571.63 C 1188.48 1628.84 1120.99 1672.26 1047.37 1700.76 C 1041.05 1703.22 1030.83 1705.92 1024.26 1705.88 C 1005.28 1705.77 973.684 1690.57 956.691 1682.6 C 892.947 1652.7 810.906 1593.76 771.893 1533.83 C 766.186 1525.99 761.096 1517.72 756.668 1509.1 C 749.67 1495.51 743.528 1480.64 742.054 1465.31 C 739.652 1440.32 738.896 1079.77 741.812 1073.26 C 744.591 1067.05 750.788 1063.55 756.862 1061.22 C 762.44 1055.94 808.017 1057.85 817.33 1057.83 C 857.468 1057.97 897.607 1057.68 937.739 1056.94 z"/>
<path transform="translate(0,0)" fill="rgb(67,116,159)" d="M 1022.18 958.903 C 1035.56 958.941 1075.22 956.889 1082.1 965.586 C 1099.7 987.829 1073.87 1035.69 1103 1056.26 C 1118.77 1057.25 1135.06 1057.02 1150.9 1057.02 C 1148.56 1060.11 1143.19 1103.41 1141.8 1110.66 L 1144.75 1111.3 L 1142.67 1112.43 C 1139.56 1133.49 1135.94 1154.48 1131.84 1175.38 L 1130.36 1175.6 L 1128.17 1188.73 L 1128.95 1188.8 C 1125.77 1202.87 1122.88 1216.79 1118.18 1230.45 L 1117.11 1230.82 C 1115.98 1234.72 1114.74 1239.48 1113.47 1243.25 C 1111.61 1253.82 1103.2 1271.23 1098.55 1281.48 C 1100.02 1283.54 1099.1 1282.63 1102.31 1283.47 L 1096.82 1283.85 C 1094.33 1287.98 1092.01 1291.82 1089.71 1296.07 L 1101.53 1296.16 C 1096.56 1297.07 1094.82 1297.15 1089.75 1297.16 C 1080.52 1313.21 1073.72 1320.1 1063.87 1333.97 L 1062.55 1333.87 C 1055.58 1343.34 1033.72 1361.05 1021.68 1357.15 C 1023.3 1345.09 1022.84 1333.13 1022.67 1320.99 L 1023.05 1320.27 L 1022.89 1316.26 C 1023.87 1305.34 1023.28 1290.63 1023.13 1279.45 L 1022.83 1267.57 C 1021.72 1258 1022.04 1239.62 1022.2 1229.78 L 1022.58 1229.05 C 1021.6 1225.54 1020.78 1222.29 1022.65 1219.01 L 1022.96 1215.03 L 1023.15 1214.32 C 1021.6 1206.22 1022.04 1189.09 1022.57 1180.74 C 1023.88 1178.49 1023.36 1179.77 1023.03 1176.52 L 1022.86 1174.78 C 1023.05 1171.05 1022.88 1167.02 1022.82 1163.27 C 1021.37 1153.57 1021.93 1130.45 1021.98 1120.12 L 1013.77 1116.54 L 1013.97 1109.88 L 1021.99 1110.01 C 1022.09 1105.07 1022.38 1101.36 1022.84 1096.48 C 1023.37 1063.58 1023.53 1022.65 1022.29 989.997 C 1022.57 980.25 1022.24 968.778 1022.18 958.903 z"/>
<path transform="translate(0,0)" fill="rgb(166,210,220)" d="M 1034.66 1115.06 C 1072.54 1104.47 1102.85 1101.69 1141.8 1110.66 L 1144.75 1111.3 L 1142.67 1112.43 C 1139.56 1133.49 1135.94 1154.48 1131.84 1175.38 L 1130.36 1175.6 C 1105.19 1179.04 1079.65 1178.71 1054.57 1174.63 C 1053.89 1148.53 1059.08 1132.35 1034.66 1115.06 z"/>
<path transform="translate(0,0)" fill="rgb(166,210,220)" d="M 1054 1186.51 C 1079.92 1191.03 1102.32 1190.88 1128.17 1188.73 L 1128.95 1188.8 C 1125.77 1202.87 1122.88 1216.79 1118.18 1230.45 L 1117.11 1230.82 C 1091.02 1231.63 1079.95 1231.08 1054.13 1227.31 C 1053.87 1213.9 1054.02 1199.97 1054 1186.51 z"/>
<path transform="translate(0,0)" fill="rgb(166,210,220)" d="M 1053.94 1239.34 C 1073.93 1244.14 1093.17 1243.95 1113.47 1243.25 C 1111.61 1253.82 1103.2 1271.23 1098.55 1281.48 C 1100.02 1283.54 1099.1 1282.63 1102.31 1283.47 L 1096.82 1283.85 C 1081.56 1283.43 1068.96 1281.98 1053.98 1279.94 C 1053.82 1266.48 1053.94 1252.82 1053.94 1239.34 z"/>
<path transform="translate(0,0)" fill="rgb(166,210,220)" d="M 1054.17 1292.55 C 1066.27 1294.02 1077.5 1295.66 1089.71 1296.07 L 1101.53 1296.16 C 1096.56 1297.07 1094.82 1297.15 1089.75 1297.16 C 1080.52 1313.21 1073.72 1320.1 1063.87 1333.97 L 1062.55 1333.87 C 1053.33 1332.45 1045.8 1330.4 1036.82 1328.06 C 1051.08 1315.58 1051.88 1310.64 1054.17 1292.55 z"/>
<path transform="translate(0,0)" fill="rgb(166,210,220)" d="M 1038.03 1216.72 C 1038.54 1237.6 1042.81 1254.83 1022.83 1267.57 C 1021.72 1258 1022.04 1239.62 1022.2 1229.78 L 1022.58 1229.05 C 1021.6 1225.54 1020.78 1222.29 1022.65 1219.01 L 1023.04 1224.72 C 1027 1227.95 1034.07 1219.88 1038.03 1216.72 z"/>
<path transform="translate(0,0)" fill="rgb(166,210,220)" d="M 1022.86 1174.78 C 1028.64 1171.56 1032.73 1168.08 1037.88 1163.99 C 1039.56 1182.09 1041.89 1204.08 1023.15 1214.32 C 1021.6 1206.22 1022.04 1189.09 1022.57 1180.74 C 1023.88 1178.49 1023.36 1179.77 1023.03 1176.52 L 1022.86 1174.78 z"/>
<path transform="translate(0,0)" fill="rgb(166,210,220)" d="M 1023.13 1279.45 C 1028.26 1275.98 1033.32 1272.4 1038.3 1268.7 C 1039.3 1287.68 1041.98 1308.53 1023.05 1320.27 L 1022.89 1316.26 C 1023.87 1305.34 1023.28 1290.63 1023.13 1279.45 z"/>
<path transform="translate(0,0)" fill="rgb(166,210,220)" d="M 1021.99 1110.01 C 1022.09 1105.07 1022.38 1101.36 1022.84 1096.48 C 1023.08 1104.66 1023.07 1112.85 1022.81 1121.03 C 1040.37 1135.48 1044.55 1150.26 1022.82 1163.27 C 1021.37 1153.57 1021.93 1130.45 1021.98 1120.12 L 1013.77 1116.54 L 1013.97 1109.88 L 1021.99 1110.01 z"/>
<path transform="translate(0,0)" fill="rgb(206,229,241)" d="M 1013.97 1109.88 L 1021.99 1110.01 L 1021.98 1120.12 L 1013.77 1116.54 L 1013.97 1109.88 z"/>
<path transform="translate(0,0)" fill="rgb(186,219,227)" d="M 937.739 1056.94 C 974.755 1048.57 942.406 987.02 962.227 966.075 C 971.952 955.8 1008.1 958.801 1022.18 958.903 C 1022.24 968.778 1022.57 980.25 1022.29 989.997 C 1023.53 1022.65 1023.37 1063.58 1022.84 1096.48 C 1022.38 1101.36 1022.09 1105.07 1021.99 1110.01 L 1013.97 1109.88 L 1013.77 1116.54 L 1021.98 1120.12 C 1021.93 1130.45 1021.37 1153.57 1022.82 1163.27 C 1022.88 1167.02 1023.05 1171.05 1022.86 1174.78 L 1023.03 1176.52 C 1023.36 1179.77 1023.88 1178.49 1022.57 1180.74 C 1022.04 1189.09 1021.6 1206.22 1023.15 1214.32 L 1022.96 1215.03 C 997.207 1224.97 990.666 1227.18 963.274 1230.84 L 960.211 1230.92 C 931.517 1231.61 891.673 1229.87 868.133 1209.26 C 855.978 1198.62 858.042 1177.7 858.033 1162.04 C 885.891 1188.15 918.288 1190.6 955.386 1190.84 L 953.631 1178.17 C 925.63 1178.05 886.613 1175.3 864.727 1154.65 C 861.579 1151.68 859.87 1146.79 858.362 1142.77 C 869.328 1109.15 913.956 1108.21 943.386 1105.84 C 941.005 1090.31 939.451 1072.71 937.739 1056.94 z"/>
<path transform="translate(0,0)" fill="rgb(247,249,250)" d="M 943.725 1106.07 C 973.929 1105.67 984.867 1107.52 1013.77 1116.54 L 1021.98 1120.12 C 1021.93 1130.45 1021.37 1153.57 1022.82 1163.27 C 1000.9 1173.71 978.113 1176.88 954.104 1178.11 C 949.314 1154.68 946.867 1129.86 943.725 1106.07 z"/>
<path transform="translate(0,0)" fill="rgb(247,249,250)" d="M 956.393 1190.8 C 971.896 1189.11 986.026 1188.27 1001.46 1184.58 C 1006.59 1183.35 1018.42 1177.36 1021.52 1177.45 L 1022.57 1180.74 C 1022.04 1189.09 1021.6 1206.22 1023.15 1214.32 L 1022.96 1215.03 C 997.207 1224.97 990.666 1227.18 963.274 1230.84 C 961.897 1219.41 958.255 1203.38 956.393 1190.8 z"/>
<path transform="translate(0,0)" fill="rgb(247,249,250)" d="M 1013.97 1109.88 C 1009.72 1094.04 1007.21 995.485 1015.38 986.466 C 1018.89 986.776 1018.9 987.612 1022.29 989.997 C 1023.53 1022.65 1023.37 1063.58 1022.84 1096.48 C 1022.38 1101.36 1022.09 1105.07 1021.99 1110.01 L 1013.97 1109.88 z"/>
<path transform="translate(0,0)" fill="rgb(247,249,250)" d="M 978.167 979.91 C 980.059 980.019 983.628 980.093 984.951 981.402 C 994.852 991.199 989.91 1022.81 983.408 1032.17 C 966.767 1030.14 969.671 989.918 978.167 979.91 z"/>
<path transform="translate(0,0)" fill="rgb(67,116,159)" d="M 1288.97 1058.05 C 1293.97 1060.24 1301.19 1064.58 1301.95 1069.91 C 1305.27 1093.49 1303.73 1128.43 1303.79 1151.8 L 1303.99 1305.26 L 1304.02 1404.41 C 1304.02 1423.22 1304.43 1442.25 1303.51 1461.01 C 1301.33 1505.86 1272.61 1540.65 1243.06 1571.63 C 1188.48 1628.84 1120.99 1672.26 1047.37 1700.76 C 1041.05 1703.22 1030.83 1705.92 1024.26 1705.88 C 1005.28 1705.77 973.684 1690.57 956.691 1682.6 C 892.947 1652.7 810.906 1593.76 771.893 1533.83 L 775.092 1530.28 C 820.352 1600.12 924.009 1666.85 1003.42 1692.51 C 1006.1 1693.37 1010.35 1693.77 1013.16 1693.22 C 1103.63 1665.85 1248.54 1572.7 1283.04 1476.92 C 1290.76 1455.49 1289.02 1409.16 1288.91 1384.65 L 1288.84 1311.14 L 1288.97 1058.05 z"/>
<path transform="translate(0,0)" fill="rgb(186,219,227)" d="M 756.862 1061.22 C 758.85 1088.56 757.512 1133.72 757.509 1162.15 L 757.474 1353.52 C 757.471 1387.62 756.238 1425.23 759.691 1459.02 C 761.129 1473.08 767.673 1490.37 773.248 1503.29 C 762.417 1511.19 770.1 1520.22 775.092 1530.28 L 771.893 1533.83 C 766.186 1525.99 761.096 1517.72 756.668 1509.1 C 749.67 1495.51 743.528 1480.64 742.054 1465.31 C 739.652 1440.32 738.896 1079.77 741.812 1073.26 C 744.591 1067.05 750.788 1063.55 756.862 1061.22 z"/>
<path transform="translate(0,0)" fill="rgb(186,219,227)" d="M 963.274 1230.84 C 990.666 1227.18 997.207 1224.97 1022.96 1215.03 L 1022.65 1219.01 C 1020.78 1222.29 1021.6 1225.54 1022.58 1229.05 L 1022.2 1229.78 C 1022.04 1239.62 1021.72 1258 1022.83 1267.57 C 1005.95 1275.62 996.709 1278.62 977.967 1281.71 C 968.746 1282.89 959.462 1283.52 950.166 1283.59 C 925.443 1283.79 886.385 1279.43 867.001 1261.27 C 856.239 1251.19 858.184 1229.36 858.45 1215.15 C 859.647 1216.21 860.856 1217.25 862.076 1218.28 C 890.514 1242.23 930.218 1245.91 965.889 1242.86 L 963.274 1230.84 z"/>
<path transform="translate(0,0)" fill="rgb(247,249,250)" d="M 966.936 1243.28 C 978.502 1241.54 987.284 1240.13 998.515 1236.91 C 1005.65 1234.87 1015.52 1230.94 1022.2 1229.78 C 1022.04 1239.62 1021.72 1258 1022.83 1267.57 C 1005.95 1275.62 996.709 1278.62 977.967 1281.71 C 973.666 1268.36 970.446 1256.8 966.936 1243.28 z"/>
<path transform="translate(0,0)" fill="rgb(186,219,227)" d="M 977.967 1281.71 C 996.709 1278.62 1005.95 1275.62 1022.83 1267.57 L 1023.13 1279.45 C 1023.28 1290.63 1023.87 1305.34 1022.89 1316.26 L 1023.05 1320.27 L 1022.67 1320.99 C 1014.27 1324.73 1006.22 1328.58 997.352 1331.07 C 961.408 1339.84 898.341 1340.46 867.833 1314.11 C 856.662 1304.46 858.316 1281.1 858.145 1267.06 C 889.451 1295.97 941.643 1301.34 981.882 1293.59 L 977.967 1281.71 z"/>
<path transform="translate(0,0)" fill="rgb(247,249,250)" d="M 983.17 1294.37 C 999.28 1290.09 1007.08 1288.25 1022.02 1280.95 C 1022 1291.52 1021.71 1306.08 1022.89 1316.26 L 1023.05 1320.27 L 1022.67 1320.99 C 1014.27 1324.73 1006.22 1328.58 997.352 1331.07 C 990.965 1317.12 987.615 1308.84 983.17 1294.37 z"/>
<path transform="translate(0,0)" fill="rgb(186,219,227)" d="M 1101.53 1296.16 C 1135.72 1294.13 1159.27 1290.65 1186.15 1268.64 C 1186.5 1282.29 1188.56 1304.68 1177.6 1314.33 C 1151.32 1337.45 1096.01 1339.2 1063.87 1333.97 C 1073.72 1320.1 1080.52 1313.21 1089.75 1297.16 C 1094.82 1297.15 1096.56 1297.07 1101.53 1296.16 z"/>
<path transform="translate(0,0)" fill="rgb(247,249,250)" d="M 773.248 1503.29 C 811.62 1573.72 887.823 1627.15 956.921 1665.22 C 966.442 1670.47 1008.85 1689.02 1013.16 1693.22 C 1010.35 1693.77 1006.1 1693.37 1003.42 1692.51 C 924.009 1666.85 820.352 1600.12 775.092 1530.28 C 770.1 1520.22 762.417 1511.19 773.248 1503.29 z"/>
<path transform="translate(0,0)" fill="rgb(186,219,227)" d="M 1113.47 1243.25 C 1144.79 1240.19 1162.36 1236.24 1185.98 1215.71 C 1186.29 1229.2 1188.46 1252.2 1178.31 1261.42 C 1159.93 1278.13 1125.55 1282.36 1102.31 1283.47 C 1099.1 1282.63 1100.02 1283.54 1098.55 1281.48 C 1103.2 1271.23 1111.61 1253.82 1113.47 1243.25 z"/>
<path transform="translate(0,0)" fill="rgb(186,219,227)" d="M 1128.95 1188.8 C 1153.34 1183.94 1167.81 1180.29 1186.14 1163.55 C 1186.79 1178.56 1189.18 1196.47 1178.4 1208.39 C 1165.87 1222.25 1135.82 1228.3 1118.18 1230.45 C 1122.88 1216.79 1125.77 1202.87 1128.95 1188.8 z"/>
<path transform="translate(0,0)" fill="rgb(186,219,227)" d="M 1131.84 1175.38 C 1135.94 1154.48 1139.56 1133.49 1142.67 1112.43 L 1144.75 1111.3 C 1157.43 1115.08 1176.6 1121.07 1183.59 1133.34 C 1185.92 1137.34 1186.45 1142.14 1185.05 1146.54 C 1179.67 1163.74 1147.75 1172.82 1131.84 1175.38 z"/>
<path transform="translate(0,0)" fill="rgb(186,219,227)" d="M 997.352 1331.07 C 1006.22 1328.58 1014.27 1324.73 1022.67 1320.99 C 1022.84 1333.13 1023.3 1345.09 1021.68 1357.15 C 1008.86 1356.93 1002.11 1341.14 997.352 1331.07 z"/>
<path transform="translate(0,0)" fill="rgb(247,249,250)" d="M 910.64 1367.38 C 953.507 1366.99 1019.87 1360.32 1020.08 1425.33 C 1020.14 1442.64 1014.87 1452.85 1002.63 1464.93 C 977.052 1484.99 942.59 1480.45 910.902 1480.61 L 910.64 1367.38 z"/>
<path transform="translate(0,0)" fill="rgb(87,140,180)" d="M 944.738 1395.62 C 956.402 1395.59 967.31 1395.24 977.186 1402.61 C 992.075 1413.72 990.033 1429.87 979.729 1443.27 C 969.788 1452.7 957.436 1451.72 944.662 1451.77 L 944.738 1395.62 z"/>
<path transform="translate(0,0)" fill="rgb(247,249,250)" d="M 1036.72 1367.15 C 1054.45 1366.65 1071.93 1367.18 1090.13 1367.07 C 1110.15 1366.95 1136.05 1372.24 1134.91 1398.02 C 1134.48 1407.52 1126.82 1414.57 1119.9 1420.29 C 1137.98 1429.84 1143.38 1441.64 1136.98 1461.19 C 1120.07 1487.15 1065.51 1480.17 1036.97 1480.05 L 1036.72 1367.15 z"/>
<path transform="translate(0,0)" fill="rgb(87,140,180)" d="M 1071.19 1433.51 C 1081.59 1433.3 1115.87 1430.68 1102.5 1450.33 C 1093.99 1455.32 1080.88 1453.99 1070.88 1453.83 C 1070.86 1446.89 1070.89 1440.43 1071.19 1433.51 z"/>
<path transform="translate(0,0)" fill="rgb(87,140,180)" d="M 1070.86 1392.51 C 1081.87 1392.48 1107.39 1389.95 1099.05 1408.21 C 1089.4 1412.01 1081.15 1411.1 1070.85 1411.02 L 1070.86 1392.51 z"/>
<path transform="translate(0,0)" fill="rgb(247,249,250)" d="M 1076.99 1504.11 L 1096.36 1504.25 C 1106.39 1516.2 1116.55 1528.05 1126.83 1539.8 L 1126.82 1504.81 L 1149.17 1504.52 C 1149.3 1516.16 1150.3 1567.86 1148.8 1576.39 L 1147.17 1577.3 L 1129.26 1577.33 L 1098.95 1539.1 L 1099.01 1577.21 L 1076.93 1577.31 L 1076.99 1504.11 z"/>
<path transform="translate(0,0)" fill="rgb(247,249,250)" d="M 1004.3 1504.41 C 1022.71 1503.75 1045.39 1504.18 1063.79 1504.49 C 1063.84 1510.14 1063.72 1515.99 1063.67 1521.66 C 1055.98 1521.81 1031.91 1520.55 1027.24 1523.63 C 1027.04 1527.81 1026.57 1525.92 1028.68 1529.52 C 1035.42 1533.58 1051.46 1531.69 1060.45 1531.61 L 1060.45 1548.73 L 1029.76 1548.73 C 1028.02 1549.17 1028.81 1548.93 1027.28 1550.46 C 1026.95 1553.72 1026.75 1554.24 1027.28 1557.53 C 1031.61 1559.86 1057.95 1559.21 1065.02 1559.49 L 1065.01 1577.27 L 1004.27 1577.42 C 1004.73 1553.79 1004.17 1528.29 1004.3 1504.41 z"/>
<path transform="translate(0,0)" fill="rgb(247,249,250)" d="M 850.689 1503.22 C 852.629 1503.05 854.574 1502.96 856.52 1502.93 C 872.615 1502.8 879.891 1507.14 890.958 1517.68 C 886.204 1521.88 881.474 1526.11 876.77 1530.37 C 869.405 1525.27 863.497 1521.04 853.821 1523.47 C 842.946 1526.2 837.636 1536.96 842.015 1547.54 C 844.031 1552.44 847.997 1556.27 852.957 1558.11 C 861.477 1561.19 867.796 1556.6 875.787 1552.75 C 879.262 1553.08 879.12 1553.97 882.428 1556.82 L 890.322 1563.49 C 884.213 1569.87 879.663 1574.1 871 1577.21 C 861.072 1580.78 850.116 1580.13 840.684 1575.4 C 831.162 1570.59 823.364 1561.69 820.113 1551.5 C 817.111 1542.21 818.03 1532.09 822.656 1523.49 C 829.094 1511.45 838.493 1507.01 850.689 1503.22 z"/>
<path transform="translate(0,0)" fill="rgb(247,249,250)" d="M 1158.05 1503.99 L 1224.68 1503.88 L 1224.54 1521.72 L 1202.34 1522.02 L 1202.28 1555.87 L 1202.14 1577.02 L 1180.1 1577.07 L 1179.86 1521.95 L 1158.03 1522.06 L 1158.05 1503.99 z"/>
<path transform="translate(0,0)" fill="rgb(247,249,250)" d="M 900.252 1504.46 C 907.579 1504.23 915.244 1504.24 922.603 1504.14 L 922.642 1558.87 L 957.041 1558.94 L 957.243 1577.83 L 900.355 1577.85 C 900.03 1553.39 899.996 1528.93 900.252 1504.46 z"/>
<path transform="translate(0,0)" fill="rgb(247,249,250)" d="M 967.069 1504.49 C 974.305 1504.34 981.834 1504.42 989.098 1504.38 C 989.227 1528.76 989.213 1553.14 989.056 1577.51 L 966.897 1577.77 C 966.495 1554.46 966.44 1527.73 967.069 1504.49 z"/>
<path transform="translate(0,0)" fill="rgb(47,65,89)" d="M 984.738 566.018 C 963.615 560.396 945.251 548.673 929.083 535.462 C 877.307 493.156 878.732 434.342 881.912 373.682 C 883.066 351.67 907.335 356.924 923.269 356.916 L 970.346 356.894 L 1137 356.978 C 1143.68 356.894 1154.31 355.871 1158.77 361.36 C 1167.32 371.881 1163.93 412.318 1163.69 425.391 C 1162.93 467.732 1150.15 505.148 1118.18 534.232 C 1101.84 549.086 1082.29 559.962 1061.05 566.012 C 1059.94 605.425 1060.41 646.179 1060.4 685.692 L 1060.98 937.009 C 1055.37 936.894 1045.7 936.432 1040.43 936.839 C 1022.83 937.413 1002.89 936.797 985.031 936.747 L 984.738 566.018 z M 1120.46 423.222 C 1055.42 421.857 990.363 421.77 925.323 422.959 C 924.782 446.694 933.464 475.131 949.182 493.055 C 986.103 535.155 1050.91 537.563 1090.69 497.934 C 1112.1 476.601 1119.3 452.725 1120.46 423.222 z M 938.124 517.957 C 896.263 466.518 901.298 441.313 900.077 378.162 C 900.038 376.139 897.639 375.48 896.117 375.119 C 885.682 378.949 888.519 402.886 888.394 412.588 C 887.836 455.676 899.201 497.846 934.794 525.328 L 938.124 517.957 z"/>
<path transform="translate(0,0)" fill="rgb(34,51,71)" d="M 1137 356.978 C 1143.68 356.894 1154.31 355.871 1158.77 361.36 C 1167.32 371.881 1163.93 412.318 1163.69 425.391 C 1162.93 467.732 1150.15 505.148 1118.18 534.232 C 1101.84 549.086 1082.29 559.962 1061.05 566.012 C 1059.94 605.425 1060.41 646.179 1060.4 685.692 L 1060.98 937.009 C 1055.37 936.894 1045.7 936.432 1040.43 936.839 C 1039.6 933.657 1039.44 908.502 1039.35 903.701 C 1038.29 841.467 1039.08 778.887 1039.21 716.626 L 1038.61 617.227 C 1038.64 600.345 1038.14 581.661 1040.06 565.04 C 1048.1 553.291 1060.5 550.374 1072.35 543.365 C 1100.27 526.854 1117.86 505.969 1129.45 476.22 C 1133.16 466.707 1135.73 456.788 1137.11 446.67 C 1139.09 432.833 1141.55 367.397 1137 356.978 z"/>
<path transform="translate(0,0)" fill="rgb(172,180,192)" d="M 994.161 880.668 C 991.611 792.88 993.889 703.487 993.973 615.607 C 993.978 610.447 996.07 606.715 999.817 603.367 C 1005.79 603.022 1007.37 614.34 1007.38 618.868 C 1007.61 703.024 1009.11 788.296 1007.07 872.39 C 1005.47 877.663 1004.72 881.669 1001.32 885.966 L 999.196 886.793 C 996.181 885.029 995.843 884.417 994.161 880.668 z"/>
<path transform="translate(0,0)" fill="rgb(34,51,71)" d="M 925.091 402.965 L 1034.72 403.462 C 1061.59 403.706 1093.97 404.414 1120.64 403.422 C 1120.75 409.963 1121.04 416.735 1120.46 423.222 C 1055.42 421.857 990.363 421.77 925.323 422.959 C 925.127 416.159 924.937 409.774 925.091 402.965 z"/>
<path transform="translate(0,0)" fill="rgb(67,116,159)" d="M 994.161 880.668 C 995.843 884.417 996.181 885.029 999.196 886.793 L 1001.32 885.966 C 1004.72 881.669 1005.47 877.663 1007.07 872.39 C 1008.65 880.397 1008.41 900.31 1007.4 908.657 L 1005.07 908.719 C 1001.67 907.865 999.315 907.335 996.624 909.592 C 995.136 913.519 994.798 914.63 994.625 918.802 C 993.184 904.12 991.908 895.668 994.161 880.668 z"/>
<path transform="translate(0,0)" fill="rgb(67,116,159)" d="M 938.124 517.957 C 945.58 522.411 963.59 540.027 968.983 546.767 C 956.006 541.772 944.761 535.163 934.794 525.328 L 938.124 517.957 z"/>
<path transform="translate(0,0)" fill="rgb(65,98,126)" d="M 1005.07 908.719 L 1007.4 908.657 C 1007.43 911.718 1008.06 919.525 1005.51 921.177 C 1003.96 916.755 1004.68 913.437 1005.07 908.719 z"/>
</svg>